# xmcd CD database file
#
# Track frame offsets:
#	150
#	15143
#	29665
#	44756
#	58546
#	70667
#	84712
#	100067
#	113189
#	128739
#	143704
#	157919
#	172953
#
# Disc length: 2471 seconds
#
# Revision: 0
# Processed by: cddbd v1.5.2PL0 Copyright (c) Steve Scherf et al.
# Submitted via: CDex 1.70beta2
#
DISCID=a209a50d
DTITLE=Wes Montgomery - Complete Recordings (with Lionel Hampton) CD1
DYEAR=2001
DGENRE=Jazz
TTITLE0=Chicken Shack Boogie
TTITLE1=New Central Avenue Breakdown
TTITLE2=Benson's Boogie
TTITLE3=Hamp's Boogie Woogie No 2
TTITLE4=Hamp's Gumbo
TTITLE5=Beulah's Sister's Boogie
TTITLE6=Wee Albert
TTITLE7=What's Happenin', Baby?
TTITLE8=Drinking Wine, Spo-Dee-O-Dee, Drinking Wine
TTITLE9=Moonglow
TTITLE10=The Hucklebuck
TTITLE11=Baby, You're Great
TTITLE12=Laverder Coffin
EXTD=YEAR: 2001
EXTT0=
EXTT1=
EXTT2=
EXTT3=
EXTT4=
EXTT5=
EXTT6=
EXTT7=
EXTT8=
EXTT9=
EXTT10=
EXTT11=
EXTT12=
PLAYORDER=
